<?xml version="1.0" encoding="UTF-8"?>
<svg width="46px" height="30px" viewBox="0 0 46 30" version="1.1" xmlns="http://www.w3.org/2000/svg" xmlns:xlink="http://www.w3.org/1999/xlink">
    <!-- Generator: Sketch 62 (91390) - https://sketch.com -->
    <title>AMERICAN-EXPRESS</title>
    <desc>Created with Sketch.</desc>
    <g id="Page-1" stroke="none" stroke-width="1" fill="none" fill-rule="evenodd">
        <g id="Planche-marque" transform="translate(-112.000000, -160.000000)">
            <g id="AMERICAN-EXPRESS" transform="translate(113.000000, 161.000000)">
                <path d="M6.409713,-2.58960077e-16 L37.590287,2.58960077e-16 C39.8190838,-1.50463262e-16 40.6272994,0.232064028 41.4421143,0.667831759 C42.2569291,1.10359949 42.8964005,1.74307093 43.3321682,2.55788574 C43.767936,3.37270056 44,4.18091615 44,6.409713 L44,21.590287 C44,23.8190838 43.767936,24.6272994 43.3321682,25.4421143 C42.8964005,26.2569291 42.2569291,26.8964005 41.4421143,27.3321682 C40.6272994,27.767936 39.8190838,28 37.590287,28 L6.409713,28 C4.18091615,28 3.37270056,27.767936 2.55788574,27.3321682 C1.74307093,26.8964005 1.10359949,26.2569291 0.667831759,25.4421143 C0.232064028,24.6272994 1.00308841e-16,23.8190838 -1.72640051e-16,21.590287 L1.72640051e-16,6.409713 C-1.00308841e-16,4.18091615 0.232064028,3.37270056 0.667831759,2.55788574 C1.10359949,1.74307093 1.74307093,1.10359949 2.55788574,0.667831759 C3.37270056,0.232064028 4.18091615,1.50463262e-16 6.409713,-2.58960077e-16 Z" id="Rectangle" stroke="#EEEEEE"></path>
                <g id="american-express" transform="translate(3.000000, 8.000000)" fill-rule="nonzero">
                    <polygon id="Path" fill="#2FABF7" points="3.25375433 3.25375433 4.50519831 3.25375433 3.87947632 1.50173277"></polygon>
                    <path d="M19.8400907,1.81459376 C19.7280186,1.75202156 19.5599106,1.75202156 19.3918025,1.75202156 L18.271082,1.75202156 L18.271082,2.75317674 L19.3918025,2.75317674 C19.5599106,2.75317674 19.7280186,2.75317674 19.8400907,2.69060454 C19.9521627,2.62803235 20.0081988,2.44031575 20.0081988,2.25259915 C20.0642348,2.00231036 19.9521627,1.87716596 19.8400907,1.81459376 Z" id="Path" fill="#228FE0"></path>
                    <path d="M32.5806818,0 L32.5806818,0.728112857 L32.2193434,0 L29.388859,0 L29.388859,0.728112857 L29.0275206,0 L25.173244,0 C24.5107902,0 23.9687826,0.121352143 23.486998,0.364056429 L23.486998,0 L20.7769598,0 L20.7769598,0.364056429 C20.4758444,0.121352143 20.114506,0 19.6327214,0 L9.93680684,0 L9.27435305,1.51690179 L8.61189926,0 L5.5405226,0 L5.5405226,0.728112857 L5.17918417,0 L2.58959209,0 L1.38513065,2.85177536 L0,6.00693107 L1.38513065,6.00693107 L3.07137666,6.00693107 L3.43271509,5.03611393 L4.2758381,5.03611393 L4.63717653,6.00693107 L8.13011469,6.00693107 L8.13011469,5.27881822 L8.43123005,6.00693107 L10.1776991,6.00693107 L10.4788145,5.27881822 L10.4788145,6.00693107 L18.8498215,6.00693107 L18.8498215,4.42935322 L18.9702676,4.42935322 C19.0907138,4.42935322 19.0907138,4.42935322 19.0907138,4.61138143 L19.0907138,5.946255 L23.4267749,5.946255 L23.4267749,5.58219857 C23.7881134,5.76422679 24.330121,5.946255 25.0527979,5.946255 L26.85949,5.946255 L27.2208284,4.97543786 L28.0639514,4.97543786 L28.4252899,5.946255 L31.918228,5.946255 L31.918228,5.03611393 L32.4602357,5.946255 L35.2907201,5.946255 L35.2907201,0 L32.5806818,0 L32.5806818,0 Z M12.2252836,5.09679 L11.2014914,5.09679 L11.2014914,1.75960607 L9.75613763,5.09679 L8.85279155,5.09679 L7.40743783,1.75960607 L7.40743783,5.09679 L5.35985339,5.09679 L4.93829189,4.18664893 L2.89070745,4.18664893 L2.52936901,5.15746607 L1.38513065,5.15746607 L3.1918228,0.849465 L4.6973996,0.849465 L6.38364561,4.91476179 L6.38364561,0.849465 L8.00966855,0.849465 L9.33457613,3.76191643 L10.5390376,0.849465 L12.2252836,0.849465 L12.2252836,5.09679 Z M16.3204525,1.75960607 L13.9717527,1.75960607 L13.9717527,2.548395 L16.2602294,2.548395 L16.2602294,3.39786 L13.9717527,3.39786 L13.9717527,4.247325 L16.3204525,4.247325 L16.3204525,5.15746607 L12.9479604,5.15746607 L12.9479604,0.849465 L16.3204525,0.849465 L16.3204525,1.75960607 Z M20.8371828,3.51921214 C20.957629,3.76191643 21.0178521,3.94394464 21.0178521,4.30800107 L21.0178521,5.15746607 L19.9940598,5.15746607 L19.9940598,4.61138143 C19.9940598,4.36867714 19.9940598,4.00462072 19.8133906,3.76191643 C19.6327214,3.57988822 19.4520522,3.57988822 19.0907138,3.57988822 L18.0066985,3.57988822 L18.0066985,5.15746607 L16.9829062,5.15746607 L16.9829062,0.849465 L19.271383,0.849465 C19.8133906,0.849465 20.174729,0.849465 20.4758444,1.03149321 C20.7769598,1.21352143 20.957629,1.51690179 20.957629,2.00231036 C20.957629,2.66974714 20.5360675,3.03380357 20.2349521,3.15515572 C20.5360675,3.21583179 20.7167367,3.39786 20.8371828,3.51921214 Z M22.643875,5.09679 L21.6200828,5.09679 L21.6200828,0.788788929 L22.643875,0.788788929 L22.643875,5.09679 Z M34.5078201,5.09679 L33.0624664,5.09679 L31.1353281,1.88095822 L31.1353281,5.09679 L29.0877437,5.09679 L28.7264052,4.18664893 L26.6185977,4.18664893 L26.2572593,5.15746607 L25.1130209,5.15746607 C24.6312364,5.15746607 24.0290056,5.03611393 23.6676672,4.6720575 C23.3063288,4.30800107 23.1256596,3.8225925 23.1256596,3.03380357 C23.1256596,2.42704286 23.2461057,1.82028214 23.6676672,1.33487357 C23.9687826,0.970817143 24.5107902,0.849465 25.173244,0.849465 L26.1368132,0.849465 L26.1368132,1.75960607 L25.173244,1.75960607 C24.8119056,1.75960607 24.6312364,1.82028214 24.3903441,2.00231036 C24.2096749,2.18433857 24.0892287,2.548395 24.0892287,2.9731275 C24.0892287,3.45853607 24.1494518,3.76191643 24.3903441,4.00462072 C24.5710133,4.18664893 24.8119056,4.247325 25.1130209,4.247325 L25.5345824,4.247325 L26.9197131,0.910141072 L28.4252899,0.910141072 L30.1115359,4.97543786 L30.1115359,0.910141072 L31.6171127,0.910141072 L33.3635818,3.88326857 L33.3635818,0.910141072 L34.387374,0.910141072 L34.387374,5.09679 L34.5078201,5.09679 L34.5078201,5.09679 Z" id="Shape" fill="#0571C1"></path>
                    <g id="Group" transform="translate(15.267616, 1.752022)" fill="#228FE0">
                        <polygon id="Path" points="11.8634045 1.6805623 13.2502319 1.6805623 12.5869666 0.0148722327"></polygon>
                        <polygon id="Path" points="1.61294063 10.2469684 1.61294063 6.85609929 0.0452226345 8.52178936"></polygon>
                    </g>
                    <polygon id="Path" fill="#2FABF7" points="10.5121294 9.01039661 10.5121294 9.78510002 12.672956 9.78510002 12.672956 10.619396 10.5121294 10.619396 10.5121294 11.5132846 12.9065588 11.5132846 14.0161725 10.2618406 12.9649596 9.01039661"></polygon>
                    <path d="M19.1705574,9.01039661 L18.0207932,9.01039661 L18.0207932,10.0115518 L19.225308,10.0115518 C19.5538121,10.0115518 19.7728148,9.84469259 19.7728148,9.5109742 C19.7180641,9.17725581 19.4990614,9.01039661 19.1705574,9.01039661 Z" id="SVGCleanerId_0" fill="#228FE0"></path>
                    <path d="M37.7405937,9.98879826 L37.7405937,7.25837505 L37.0126662,7.25837505 L35.1928475,7.25837505 C34.6469018,7.25837505 34.2222775,7.37972719 33.9189743,7.62243148 L33.9189743,7.25837505 L31.1285856,7.25837505 C30.7039613,7.25837505 30.1580156,7.37972719 29.9153731,7.62243148 L29.9153731,7.25837505 L25.0018626,7.25837505 L25.0018626,7.62243148 C24.6378988,7.31905112 23.9706319,7.25837505 23.6673288,7.25837505 L20.3916551,7.25837505 L20.3916551,7.62243148 C20.088352,7.31905112 19.3604245,7.25837505 18.9964607,7.25837505 L15.3568233,7.25837505 L14.5075745,8.16851612 L13.7189864,7.25837505 L8.25953023,7.25837505 L8.25953023,13.2046301 L13.5976652,13.2046301 L14.4469139,12.294489 L15.235502,13.2046301 L18.5111757,13.2046301 L18.5111757,11.8090804 L18.9358001,11.8090804 C19.3604245,11.8090804 19.9063701,11.8090804 20.3309945,11.6270522 L20.3309945,13.2653061 L23.0607226,13.2653061 L23.0607226,11.6877283 L23.1820438,11.6877283 C23.3640257,11.6877283 23.3640257,11.6877283 23.3640257,11.8697565 L23.3640257,13.2653061 L31.6138706,13.2653061 C32.1598162,13.2653061 32.7057619,13.143954 33.009065,12.9012497 L33.009065,13.2653061 L35.6174718,13.2653061 C36.1634174,13.2653061 36.7093631,13.2046301 37.0733268,12.9619258 L37.0733268,12.9619258 C37.6799331,12.5978693 38.0438968,11.9304326 38.0438968,11.1416436 C38.0438968,10.7169111 37.9225756,10.2921786 37.7405937,9.98879826 Z M18.9358001,10.9596154 L17.7225876,10.9596154 L17.7225876,12.4158411 L15.7814477,12.4158411 L14.5682352,11.0202915 L13.2943621,12.4158411 L9.29076084,12.4158411 L9.29076084,8.10784005 L13.3550227,8.10784005 L14.5682352,9.50338969 L15.8421083,8.10784005 L19.0571214,8.10784005 C19.8457095,8.10784005 20.7556189,8.35054433 20.7556189,9.50338969 C20.6949582,10.7169111 19.8457095,10.9596154 18.9358001,10.9596154 Z M25.0018626,10.7169111 C25.1231838,10.8989393 25.1838444,11.1416436 25.1838444,11.5057001 L25.1838444,12.3551651 L24.1526138,12.3551651 L24.1526138,11.8090804 C24.1526138,11.5663761 24.1526138,11.1416436 23.9706319,10.9596154 C23.8493107,10.7775872 23.6066682,10.7775872 23.2427045,10.7775872 L22.1508132,10.7775872 L22.1508132,12.3551651 L21.1195826,12.3551651 L21.1195826,8.04716398 L23.4246863,8.04716398 C23.9099713,8.04716398 24.3345957,8.04716398 24.6378988,8.22919219 C24.9412019,8.41122041 25.1838444,8.71460076 25.1838444,9.20000933 C25.1838444,9.86744612 24.7592201,10.2315025 24.4559169,10.3528547 C24.7592201,10.4742068 24.9412019,10.595559 25.0018626,10.7169111 Z M29.1874456,8.95730505 L26.8216813,8.95730505 L26.8216813,9.74609398 L29.126785,9.74609398 L29.126785,10.595559 L26.8216813,10.595559 L26.8216813,11.445024 L29.1874456,11.445024 L29.1874456,12.3551651 L25.7904507,12.3551651 L25.7904507,8.04716398 L29.1874456,8.04716398 L29.1874456,8.95730505 Z M31.7351919,12.3551651 L29.7940519,12.3551651 L29.7940519,11.445024 L31.7351919,11.445024 C31.9171737,11.445024 32.038495,11.445024 32.1598162,11.3236718 C32.2204769,11.2629958 32.2811375,11.1416436 32.2811375,11.0202915 C32.2811375,10.8989393 32.2204769,10.7775872 32.1598162,10.7169111 C32.0991556,10.656235 31.9778344,10.595559 31.7958525,10.595559 C30.8252825,10.5348829 29.6727306,10.595559 29.6727306,9.26068541 C29.6727306,8.65392469 30.0366944,7.98648791 31.1285856,7.98648791 L33.1303862,7.98648791 L33.1303862,9.01798112 L31.2499069,9.01798112 C31.067925,9.01798112 30.9466038,9.01798112 30.8252825,9.07865719 C30.7039613,9.13933326 30.7039613,9.26068541 30.7039613,9.38203755 C30.7039613,9.56406576 30.8252825,9.62474183 30.9466038,9.68541791 C31.067925,9.74609398 31.1892462,9.74609398 31.3105675,9.74609398 L31.8565131,9.74609398 C32.4024587,9.74609398 32.7664225,9.86744612 33.009065,10.1101504 C33.1910469,10.2921786 33.3123681,10.595559 33.3123681,11.0202915 C33.3123681,11.9304326 32.7664225,12.3551651 31.7351919,12.3551651 Z M36.9520056,11.9304326 C36.7093631,12.1731368 36.2847387,12.3551651 35.6781325,12.3551651 L33.7369925,12.3551651 L33.7369925,11.445024 L35.6781325,11.445024 C35.8601143,11.445024 35.9814356,11.445024 36.1027568,11.3236718 C36.1634174,11.2629958 36.2240781,11.1416436 36.2240781,11.0202915 C36.2240781,10.8989393 36.1634174,10.7775872 36.1027568,10.7169111 C36.0420962,10.656235 35.920775,10.595559 35.7387931,10.595559 C34.7682231,10.5348829 33.6156712,10.595559 33.6156712,9.26068541 C33.6156712,8.65392469 33.979635,7.98648791 35.0715262,7.98648791 L37.0733268,7.98648791 L37.0733268,9.01798112 L35.2535081,9.01798112 C35.0715262,9.01798112 34.950205,9.01798112 34.8288837,9.07865719 C34.7075625,9.13933326 34.7075625,9.26068541 34.7075625,9.38203755 C34.7075625,9.56406576 34.7682231,9.62474183 34.950205,9.68541791 C35.0715262,9.74609398 35.1928475,9.74609398 35.3141687,9.74609398 L35.8601143,9.74609398 C36.4060599,9.74609398 36.7700237,9.86744612 37.0126662,10.1101504 C37.0733268,10.1101504 37.0733268,10.1708265 37.0733268,10.1708265 C37.2553087,10.4135308 37.3159693,10.7169111 37.3159693,11.0202915 C37.3159693,11.3843479 37.1946481,11.6877283 36.9520056,11.9304326 Z" id="Shape" fill="#0571C1"></path>
                    <path d="M23.8447114,9.07296881 C23.7326394,9.01039661 23.5645313,9.01039661 23.3964232,9.01039661 L22.2757027,9.01039661 L22.2757027,10.0115518 L23.3964232,10.0115518 C23.5645313,10.0115518 23.7326394,10.0115518 23.8447114,9.94897959 C23.9567835,9.88640739 24.0128195,9.6986908 24.0128195,9.5109742 C24.0688555,9.26068541 23.9567835,9.13554101 23.8447114,9.07296881 Z" id="SVGCleanerId_1" fill="#228FE0"></path>
                    <g id="Group" transform="translate(15.267616, 1.752022)" fill="#228FE0">
                        <path d="M4.56748609,0.252827956 C4.44689239,0.193339026 4.26600186,0.193339026 4.08511132,0.193339026 L2.8791744,0.193339026 L2.8791744,1.14516192 L4.08511132,1.14516192 C4.26600186,1.14516192 4.44689239,1.14516192 4.56748609,1.08567299 C4.68807978,1.02618406 4.74837662,0.847717266 4.74837662,0.669250473 C4.80867347,0.431294749 4.68807978,0.312316887 4.56748609,0.252827956 Z" id="Path"></path>
                        <polygon id="Path" points="11.8634045 1.6805623 13.2502319 1.6805623 12.5869666 0.0148722327"></polygon>
                        <polygon id="Path" points="1.61294063 10.2469684 1.61294063 6.85609929 0.0452226345 8.52178936"></polygon>
                    </g>
                    <path d="M19.1705574,9.01039661 L18.0207932,9.01039661 L18.0207932,10.0115518 L19.225308,10.0115518 C19.5538121,10.0115518 19.7728148,9.84469259 19.7728148,9.5109742 C19.7180641,9.17725581 19.4990614,9.01039661 19.1705574,9.01039661 Z" id="SVGCleanerId_0_1_" fill="#228FE0"></path>
                    <path d="M23.8447114,9.07296881 C23.7326394,9.01039661 23.5645313,9.01039661 23.3964232,9.01039661 L22.2757027,9.01039661 L22.2757027,10.0115518 L23.3964232,10.0115518 C23.5645313,10.0115518 23.7326394,10.0115518 23.8447114,9.94897959 C23.9567835,9.88640739 24.0128195,9.6986908 24.0128195,9.5109742 C24.0688555,9.26068541 23.9567835,9.13554101 23.8447114,9.07296881 Z" id="SVGCleanerId_1_1_" fill="#228FE0"></path>
                    <g id="Group" fill="#2FABF7">
                        <polygon id="Path" points="18.7111059 12.2798834 17.8633535 11.3702624 17.8633535 12.4011662 15.8650801 12.4011662 14.6540052 11.006414 13.3218229 12.4011662 9.32527606 12.4011662 9.32527606 8.15626822 13.3823767 8.15626822 14.6540052 9.55102041 15.2595426 8.82332362 13.7456991 7.30728863 8.41696995 7.30728863 8.41696995 13.2501458 13.7456991 13.2501458 14.6540052 12.3405248 15.4412039 13.2501458 18.7111059 13.2501458"></polygon>
                        <polygon id="Path" points="12.4135168 5.97317784 11.6263182 5.12419825 11.2629958 5.12419825 11.2629958 4.76034985 10.3546897 3.85072886 9.74915225 5.12419825 8.90139988 5.12419825 7.4481101 1.78892128 7.4481101 5.12419825 5.38928292 5.12419825 4.96540673 4.21457726 2.90657955 4.21457726 2.48270337 5.12419825 1.39273604 5.12419825 3.20934826 0.879300292 4.72319177 0.879300292 6.41869651 4.94227405 6.41869651 0.879300292 7.32700262 0.879300292 6.47925025 0.0303206997 5.57094414 0.0303206997 5.57094414 0.758017493 5.26817544 0.0303206997 2.60381085 0.0303206997 1.39273604 2.88046647 0 5.97317784 1.39273604 5.97317784 3.14879451 5.97317784 3.51211696 5.06355685 4.35986933 5.06355685 4.78374551 5.97317784 8.17475499 5.97317784 8.17475499 5.24548105 8.47752369 5.97317784 10.2335822 5.97317784 10.5363509 5.24548105 10.5363509 5.97317784"></polygon>
                        <polygon id="Path" points="9.62804477 3.18367347 8.65918492 2.21341108 9.3858298 3.79008746"></polygon>
                    </g>
                    <g id="Group" transform="translate(6.006931, 0.250289)" fill="#228FE0">
                        <path d="M31.0720877,12.7008617 C31.6148316,12.3418268 31.9766609,11.7434352 32.0369657,11.0852044 L31.1926975,10.2474562 C31.2530023,10.4269737 31.3133072,10.6064911 31.3133072,10.8458478 C31.3133072,11.2048827 31.1926975,11.5040785 30.9514779,11.7434352 C30.7102584,11.9827918 30.2881243,12.1623093 29.6850755,12.1623093 L27.7553195,12.1623093 L27.7553195,11.2647219 L29.6850755,11.2647219 C29.8659902,11.2647219 29.9865999,11.2647219 30.1072097,11.1450436 C30.1675146,11.0852044 30.2278194,10.9655261 30.2278194,10.8458478 C30.2278194,10.7261695 30.1675146,10.6064911 30.1072097,10.546652 C30.0469048,10.4868128 29.926295,10.4269737 29.7453804,10.4269737 C28.7805024,10.3671345 27.6347097,10.4269737 27.6347097,9.11051213 C27.6347097,8.51212053 27.996539,7.97356809 28.9011121,7.85388977 L28.2377585,7.19565901 C28.1171487,7.25549817 28.0568439,7.31533733 27.996539,7.31533733 L27.996539,6.95630236 L25.2225147,6.95630236 C24.8003805,6.95630236 24.2576366,7.07598069 24.0164171,7.31533733 L24.0164171,6.95630236 L19.0714172,6.95630236 L19.0714172,7.31533733 C18.709588,7.01614152 18.0462343,6.95630236 17.74471,6.95630236 L14.4882466,6.95630236 L14.4882466,7.31533733 C14.1867222,7.01614152 13.4630637,6.95630236 13.1012345,6.95630236 L9.48294186,6.95630236 L8.63867358,7.85388977 L7.85471019,6.95630236 L7.19135654,6.95630236 L9.00050284,8.75147717 L9.90507599,7.79405061 L13.1012345,7.79405061 C13.8851979,7.79405061 14.789771,8.03340725 14.789771,9.17035129 C14.789771,10.3671345 13.9455027,10.6064911 13.0409296,10.6064911 L11.834832,10.6064911 L11.834832,11.5040785 L12.7394052,12.4016659 L12.7394052,11.5040785 L13.0409296,11.5040785 C13.4630637,11.5040785 14.0058076,11.5040785 14.4279417,11.3245611 L14.4279417,12.9402184 L17.1416612,12.9402184 L17.1416612,11.3844002 L17.2622709,11.3844002 C17.4431856,11.3844002 17.4431856,11.3844002 17.4431856,11.5639177 L17.4431856,12.9402184 L25.6446488,12.9402184 C26.1873927,12.9402184 26.7301366,12.8205401 27.031661,12.5811834 L27.031661,12.9402184 L29.6247707,12.9402184 C30.1072097,13.0000575 30.6499536,12.9402184 31.0720877,12.7008617 L31.0720877,12.7008617 Z M19.0714172,10.546652 C19.192027,10.7261695 19.2523319,10.9655261 19.2523319,11.3245611 L19.2523319,12.1623093 L18.227149,12.1623093 L18.227149,11.6237569 C18.227149,11.3844002 18.227149,10.9655261 18.0462343,10.7860086 C17.9256246,10.6064911 17.6844051,10.6064911 17.3225758,10.6064911 L16.237088,10.6064911 L16.237088,12.1623093 L15.2119051,12.1623093 L15.2119051,7.91372893 L17.5034905,7.91372893 C17.9859295,7.91372893 18.4080636,7.91372893 18.709588,8.09324641 C19.0111124,8.27276389 19.2523319,8.57195969 19.2523319,9.05067297 C19.2523319,9.70890373 18.8301977,10.0679387 18.5286734,10.187617 C18.8301977,10.3072953 19.0111124,10.4269737 19.0714172,10.546652 Z M23.2324537,8.81131633 L20.8805635,8.81131633 L20.8805635,9.58922541 L23.1721489,9.58922541 L23.1721489,10.4269737 L20.8805635,10.4269737 L20.8805635,11.2647219 L23.2324537,11.2647219 L23.2324537,12.1623093 L19.8553806,12.1623093 L19.8553806,7.91372893 L23.2324537,7.91372893 L23.2324537,8.81131633 Z M25.7652586,12.1623093 L23.8355025,12.1623093 L23.8355025,11.2647219 L25.7652586,11.2647219 C25.9461732,11.2647219 26.0667829,11.2647219 26.1873927,11.1450436 C26.2476976,11.0852044 26.3080024,10.9655261 26.3080024,10.8458478 C26.3080024,10.7261695 26.2476976,10.6064911 26.1873927,10.546652 C26.1270878,10.4868128 26.0064781,10.4269737 25.8255634,10.4269737 C24.8606854,10.3671345 23.7148927,10.4269737 23.7148927,9.11051213 C23.7148927,8.51212053 24.076722,7.85388977 25.1622098,7.85388977 L27.1522707,7.85388977 L27.1522707,8.87115549 L25.2828195,8.87115549 C25.1019049,8.87115549 24.9812952,8.87115549 24.8606854,8.93099465 C24.7400757,8.99083381 24.7400757,9.11051213 24.7400757,9.23019045 C24.7400757,9.40970793 24.8606854,9.46954709 24.9812952,9.52938625 C25.1019049,9.58922541 25.2225147,9.58922541 25.3431244,9.58922541 L25.8858683,9.58922541 C26.4286122,9.58922541 26.7904415,9.70890373 27.031661,9.94826037 C27.2125756,10.1277779 27.3331853,10.4269737 27.3331853,10.8458478 C27.3331853,11.7434352 26.7904415,12.1623093 25.7652586,12.1623093 Z" id="Shape"></path>
                        <path d="M28.6598926,9.23019045 C28.6598926,9.40970793 28.7201975,9.46954709 28.9011121,9.52938625 C29.0217219,9.58922541 29.1423316,9.58922541 29.2629414,9.58922541 L29.8056853,9.58922541 C30.1675146,9.58922541 30.4087341,9.64906457 30.6499536,9.76874289 L29.7453804,8.87115549 L29.2026365,8.87115549 C29.0217219,8.87115549 28.9011121,8.87115549 28.7805024,8.93099465 C28.7201975,8.99083381 28.6598926,9.11051213 28.6598926,9.23019045 Z" id="Path"></path>
                        <polygon id="Path" points="26.549222 5.63984084 26.6698317 5.81935832 26.7301366 5.81935832"></polygon>
                        <polygon id="Path" points="23.2324537 2.34868703 24.2576366 4.8020926 24.2576366 3.36595276"></polygon>
                        <path d="M12.9203198,4.32337932 L13.0409296,4.32337932 C13.1615393,4.32337932 13.1615393,4.32337932 13.1615393,4.5028968 L13.1615393,5.81935832 L17.5034905,5.81935832 L17.5034905,5.46032336 C17.8653197,5.63984084 18.4080636,5.81935832 19.1317221,5.81935832 L20.9408684,5.81935832 L21.3026977,4.86193176 L22.146966,4.86193176 L22.5087952,5.81935832 L26.0064781,5.81935832 L26.0064781,5.22096672 L25.1622098,4.38321848 L25.1622098,5.04144924 L23.111844,5.04144924 L22.8103196,4.08402268 L20.6996489,4.08402268 L20.3378197,5.04144924 L19.192027,5.04144924 C18.709588,5.04144924 18.1065392,4.92177092 17.74471,4.56273596 C17.3828807,4.203701 17.2019661,3.72498772 17.2019661,2.94707864 C17.2019661,2.34868703 17.3225758,1.75029543 17.74471,1.27158215 C18.0462343,0.912547192 18.5889782,0.792868872 19.2523319,0.792868872 L20.2172099,0.792868872 L20.2172099,1.69045627 L19.2523319,1.69045627 C18.8905026,1.69045627 18.709588,1.75029543 18.4683685,1.92981291 C18.2874538,2.10933039 18.1668441,2.46836536 18.1668441,2.88723948 C18.1668441,3.36595276 18.227149,3.66514856 18.4683685,3.9045052 C18.6492831,4.08402268 18.8905026,4.14386184 19.192027,4.14386184 L19.6141611,4.14386184 L21.0011733,0.852708032 L21.6042221,0.852708032 L20.7599538,0.01495979 L19.192027,0.01495979 C18.5286734,0.01495979 17.9859295,0.13463811 17.5034905,0.373994751 L17.5034905,0.01495979 L14.8500759,0.01495979 L14.8500759,0.373994751 C14.5485515,0.13463811 14.1867222,0.01495979 13.7042832,0.01495979 L3.99519808,0.01495979 L3.33184444,1.51093879 L2.66849079,0.01495979 L0.0150762192,0.01495979 L0.859344493,0.852708032 L2.06544203,0.852708032 L3.09062493,3.06675696 L3.45245419,3.42579192 L4.53794197,0.792868872 L6.22647852,0.792868872 L6.22647852,5.04144924 L5.20129561,5.04144924 L5.20129561,1.75029543 L4.17611271,4.14386184 L5.92495413,5.87919748 L12.8600149,5.87919748 L12.9203198,4.32337932 Z M15.6943442,0.792868872 L16.7195271,0.792868872 L16.7195271,5.04144924 L15.6943442,5.04144924 L15.6943442,0.792868872 Z M10.387515,1.69045627 L8.03562482,1.69045627 L8.03562482,2.46836536 L10.3272101,2.46836536 L10.3272101,3.3061136 L8.03562482,3.3061136 L8.03562482,4.14386184 L10.387515,4.14386184 L10.387515,5.04144924 L7.01044191,5.04144924 L7.01044191,0.792868872 L10.387515,0.792868872 L10.387515,1.69045627 Z M12.0760516,4.98161008 L11.0508686,4.98161008 L11.0508686,0.733029712 L13.342454,0.733029712 C13.8851979,0.733029712 14.2470271,0.733029712 14.5485515,0.912547192 C14.8500759,1.09206467 15.0309905,1.39126047 15.0309905,1.86997375 C15.0309905,2.52820452 14.6088564,2.88723948 14.307332,3.0069178 C14.5485515,3.06675696 14.7294661,3.24627444 14.789771,3.36595276 C14.9103808,3.6053094 14.9706856,3.78482688 14.9706856,4.14386184 L14.9706856,4.98161008 L13.9455027,4.98161008 L13.9455027,4.44305764 C13.9455027,4.203701 13.9455027,3.84466604 13.7645881,3.6053094 C13.7042832,3.48563108 13.5233686,3.48563108 13.1615393,3.48563108 L12.0760516,3.48563108 L12.0760516,4.98161008 L12.0760516,4.98161008 Z" id="Shape"></path>
                    </g>
                </g>
            </g>
        </g>
    </g>
</svg>