<?xml version="1.0" encoding="UTF-8"?>
<svg width="46px" height="30px" viewBox="0 0 46 30" version="1.1" xmlns="http://www.w3.org/2000/svg" xmlns:xlink="http://www.w3.org/1999/xlink">
    <!-- Generator: Sketch 62 (91390) - https://sketch.com -->
    <title>MASTER-CARD</title>
    <desc>Created with Sketch.</desc>
    <g id="Page-1" stroke="none" stroke-width="1" fill="none" fill-rule="evenodd">
        <g id="Planche-marque" transform="translate(-220.000000, -160.000000)">
            <g id="MASTER-CARD" transform="translate(221.000000, 161.000000)">
                <path d="M6.409713,-2.58960077e-16 L37.590287,2.58960077e-16 C39.8190838,-1.50463262e-16 40.6272994,0.232064028 41.4421143,0.667831759 C42.2569291,1.10359949 42.8964005,1.74307093 43.3321682,2.55788574 C43.767936,3.37270056 44,4.18091615 44,6.409713 L44,21.590287 C44,23.8190838 43.767936,24.6272994 43.3321682,25.4421143 C42.8964005,26.2569291 42.2569291,26.8964005 41.4421143,27.3321682 C40.6272994,27.767936 39.8190838,28 37.590287,28 L6.409713,28 C4.18091615,28 3.37270056,27.767936 2.55788574,27.3321682 C1.74307093,26.8964005 1.10359949,26.2569291 0.667831759,25.4421143 C0.232064028,24.6272994 1.00308841e-16,23.8190838 -1.72640051e-16,21.590287 L1.72640051e-16,6.409713 C-1.00308841e-16,4.18091615 0.232064028,3.37270056 0.667831759,2.55788574 C1.10359949,1.74307093 1.74307093,1.10359949 2.55788574,0.667831759 C3.37270056,0.232064028 4.18091615,1.50463262e-16 6.409713,-2.58960077e-16 Z" id="Rectangle" stroke="#EEEEEE"></path>
                <g id="mastercard" transform="translate(8.000000, 5.000000)" fill-rule="nonzero">
                    <circle id="Oval" fill="#EE0005" cx="9" cy="9" r="9"></circle>
                    <circle id="Oval" fill="#F9A000" cx="19.8679245" cy="9" r="9"></circle>
                    <path d="M10.8679245,9 C10.8679245,11.8210747 12.1950511,14.3347936 14.2641509,15.9622642 C16.3331828,14.3347263 17.6603774,11.8210747 17.6603774,9 C17.6603774,6.17892533 16.3332508,3.66520642 14.2641509,2.03773585 C12.195119,3.66534107 10.8679245,6.17899266 10.8679245,9 Z" id="Path" fill="#FF6300"></path>
                </g>
            </g>
        </g>
    </g>
</svg>