<?xml version="1.0" encoding="UTF-8"?>
<svg width="46px" height="30px" viewBox="0 0 46 30" version="1.1" xmlns="http://www.w3.org/2000/svg" xmlns:xlink="http://www.w3.org/1999/xlink">
    <!-- Generator: Sketch 62 (91390) - https://sketch.com -->
    <title>PAYPAL</title>
    <desc>Created with Sketch.</desc>
    <defs>
        <polygon id="path-1" points="0 0.0209497951 16.8369134 0.0209497951 16.8369134 4.95297695 0 4.95297695"></polygon>
        <polygon id="path-3" points="0.0344918598 0.0212546778 14.1886986 0.0212546778 14.1886986 6.19230769 0.0344918598 6.19230769"></polygon>
        <polygon id="path-5" points="0 0.0209497951 16.8369134 0.0209497951 16.8369134 4.95297695 0 4.95297695"></polygon>
        <polygon id="path-7" points="0.0344918598 0.0212546778 14.1886986 0.0212546778 14.1886986 6.19230769 0.0344918598 6.19230769"></polygon>
    </defs>
    <g id="Page-1" stroke="none" stroke-width="1" fill="none" fill-rule="evenodd">
        <g id="Planche-marque" transform="translate(-330.000000, -160.000000)">
            <g id="PAYPAL" transform="translate(331.000000, 161.000000)">
                <path d="M6.409713,-2.58960077e-16 L37.590287,2.58960077e-16 C39.8190838,-1.50463262e-16 40.6272994,0.232064028 41.4421143,0.667831759 C42.2569291,1.10359949 42.8964005,1.74307093 43.3321682,2.55788574 C43.767936,3.37270056 44,4.18091615 44,6.409713 L44,21.590287 C44,23.8190838 43.767936,24.6272994 43.3321682,25.4421143 C42.8964005,26.2569291 42.2569291,26.8964005 41.4421143,27.3321682 C40.6272994,27.767936 39.8190838,28 37.590287,28 L6.409713,28 C4.18091615,28 3.37270056,27.767936 2.55788574,27.3321682 C1.74307093,26.8964005 1.10359949,26.2569291 0.667831759,25.4421143 C0.232064028,24.6272994 1.00308841e-16,23.8190838 -1.72640051e-16,21.590287 L1.72640051e-16,6.409713 C-1.00308841e-16,4.18091615 0.232064028,3.37270056 0.667831759,2.55788574 C1.10359949,1.74307093 1.74307093,1.10359949 2.55788574,0.667831759 C3.37270056,0.232064028 4.18091615,1.50463262e-16 6.409713,-2.58960077e-16 Z" id="Rectangle" stroke="#EEEEEE"></path>
                <g id="Group" transform="translate(10.000000, 17.000000)">
                    <g id="WHITE" transform="translate(0.000000, 0.269231)">
                        <g id="Group-4">
                            <mask id="mask-2" fill="white">
                                <use xlink:href="#path-1"></use>
                            </mask>
                            <g id="Clip-2"></g>
                            <path d="M15.5001092,1.68373668 C15.4036989,2.32105584 14.9203367,2.32105584 14.4527835,2.32105584 L14.1867336,2.32105584 L14.373329,1.13112398 C14.3846328,1.05920184 14.4462306,1.00625 14.5185588,1.00625 L14.6404437,1.00625 C14.9587534,1.00625 15.2593701,1.00625 15.4143474,1.18877715 C15.5070717,1.2980625 15.5351675,1.45996977 15.5001092,1.68373668 Z M15.29664,0.0209497951 L13.5333223,0.0209497951 C13.412748,0.0209497951 13.3101123,0.109285348 13.2913545,0.229210553 L12.5783113,4.78191445 C12.5642225,4.87173463 12.6331923,4.95297695 12.7234592,4.95297695 L13.6281763,4.95297695 C13.7125456,4.95297695 13.7844642,4.89111732 13.7975701,4.80723566 L13.9998106,3.51651383 C14.0185685,3.39658863 14.1212041,3.30825307 14.2417784,3.30825307 L14.7997624,3.30825307 C15.9611914,3.30825307 16.6314765,2.74227869 16.8066861,1.6204749 C16.8855673,1.12988678 16.8098807,0.744377561 16.581756,0.474504611 C16.3309417,0.17782582 15.8864877,0.0209497951 15.29664,0.0209497951 L15.29664,0.0209497951 Z" id="Fill-1" fill="#FFFFFF" mask="url(#mask-2)"></path>
                            <path d="M2.92368188,1.68373668 C2.82727156,2.32105584 2.34382745,2.32105584 1.87635617,2.32105584 L1.61030628,2.32105584 L1.79690162,1.13112398 C1.80820546,1.05920184 1.86972131,1.00625 1.94204952,1.00625 L2.06401636,1.00625 C2.38224414,1.00625 2.68294277,1.00625 2.83792011,1.18877715 C2.93064439,1.2980625 2.95874018,1.45996977 2.92368188,1.68373668 Z M2.72013078,0.0209497951 L0.956813045,0.0209497951 C0.836320623,0.0209497951 0.733603085,0.109285348 0.714845257,0.229210553 L0.00180206207,4.78191445 C-0.0122048749,4.87173463 0.0566830432,4.95297695 0.147031882,4.95297695 L0.988922515,4.95297695 C1.10949685,4.95297695 1.21213248,4.86464139 1.2308903,4.74471619 L1.42330138,3.51651383 C1.44214112,3.39658863 1.54477675,3.30825307 1.66535109,3.30825307 L2.22325312,3.30825307 C3.38476403,3.30825307 4.05504921,2.74227869 4.23025879,1.6204749 C4.30905805,1.12988678 4.23345335,0.744377561 4.00524677,0.474504611 C3.7545144,0.17782582 3.31006037,0.0209497951 2.72013078,0.0209497951 L2.72013078,0.0209497951 Z" id="Fill-3" fill="#FFFFFF" mask="url(#mask-2)"></path>
                        </g>
                        <path d="M6.69479032,3.42929159 C6.61478621,3.91997321 6.23926493,4.24937137 5.7602042,4.24937137 C5.52011156,4.24937137 5.32789286,4.16922948 5.20427206,4.01752638 C5.08177581,3.86715621 5.03566903,3.65297243 5.07454653,3.41437953 C5.1490885,2.92811321 5.53063419,2.58813499 6.00238531,2.58813499 C6.23749778,2.58813499 6.42843127,2.66894334 6.55446183,2.82206266 C6.68129565,2.97626499 6.7310974,3.1919483 6.69479032,3.42929159 Z M7.8486648,1.75789168 L7.02075082,1.75789168 C6.94974316,1.75789168 6.88933846,1.81137515 6.87833388,1.88410266 L6.84194647,2.1241951 L6.78403185,2.03722199 C6.60474554,1.76722213 6.20512664,1.67708333 5.80607001,1.67708333 C4.89132427,1.67708333 4.10991871,2.39602772 3.95778239,3.40429931 C3.87866186,3.90739377 3.99103711,4.38807848 4.26599098,4.7236414 C4.51869471,5.03187944 4.87927546,5.16025641 5.30885574,5.16025641 C6.04616266,5.16025641 6.4550993,4.66899163 6.4550993,4.66899163 L6.41814962,4.90766784 C6.40433365,4.99838979 6.47196764,5.08053106 6.56056656,5.08053106 L7.306147,5.08053106 C7.424386,5.08053106 7.52503373,4.99139195 7.54342825,4.87026274 L7.99108175,1.93058829 C8.00489772,1.83986634 7.93726372,1.75789168 7.8486648,1.75789168 L7.8486648,1.75789168 Z" id="Fill-5" fill="#FFFFFF"></path>
                        <path d="M19.3818982,3.42929159 C19.3019744,3.91997321 18.9263728,4.24937137 18.4473923,4.24937137 C18.2072193,4.24937137 18.0150005,4.16922948 17.8913797,4.01752638 C17.7688835,3.86715621 17.7227767,3.65297243 17.7616542,3.41437953 C17.8361962,2.92811321 18.2178222,2.58813499 18.6895734,2.58813499 C18.9246859,2.58813499 19.1155391,2.66894334 19.2415697,2.82206266 C19.3684036,2.97626499 19.4182053,3.1919483 19.3818982,3.42929159 Z M20.5358532,1.75789168 L19.7078588,1.75789168 C19.6369315,1.75789168 19.5765267,1.81137515 19.5655222,1.88410266 L19.5290544,2.1241951 L19.4712201,2.03722199 C19.2918534,1.76722213 18.8922345,1.67708333 18.4931778,1.67708333 C17.5784319,1.67708333 16.7970262,2.39602772 16.6448898,3.40429931 C16.5657693,3.90739377 16.6781446,4.38807848 16.9531788,4.7236414 C17.2058023,5.03187944 17.5663831,5.16025641 17.9959634,5.16025641 C18.7332705,5.16025641 19.1422875,4.66899163 19.1422875,4.66899163 L19.1052575,4.90766784 C19.0914415,4.99838979 19.1590755,5.08053106 19.2476745,5.08053106 L19.9933353,5.08053106 C20.111494,5.08053106 20.2121418,4.99139195 20.2306166,4.87026274 L20.6781899,1.93058829 C20.6920059,1.83986634 20.6243719,1.75789168 20.5358532,1.75789168 L20.5358532,1.75789168 Z" id="Fill-6" fill="#FFFFFF"></path>
                        <g id="Group-10" transform="translate(8.500362, 0.000000)">
                            <mask id="mask-4" fill="white">
                                <use xlink:href="#path-3"></use>
                            </mask>
                            <g id="Clip-8"></g>
                            <path d="M3.97949849,1.68757121 L3.12848541,1.68757121 C3.04708844,1.68757121 2.97094819,1.72874168 2.92528047,1.79727547 L1.75139002,3.55865229 L1.2538911,1.86606029 C1.22276149,1.7602053 1.12707282,1.68757121 1.01857091,1.68757121 L0.182013801,1.68757121 C0.0809862851,1.68757121 0.0099384792,1.7888238 0.0424644111,1.88622713 L0.979556223,4.68833004 L0.0981527492,5.9553264 C0.0289940757,6.05473805 0.0988098387,6.19230769 0.218400134,6.19230769 L1.06859185,6.19230769 C1.14916746,6.19230769 1.22465062,6.15205769 1.27048261,6.08461175 L4.10064937,1.9232973 C4.1683296,1.8237183 4.0984317,1.68757121 3.97949849,1.68757121" id="Fill-7" fill="#FFFFFF" mask="url(#mask-4)"></path>
                            <path d="M12.3532832,4.8515894 C12.339238,4.94271674 12.4083966,5.02505769 12.4989107,5.02505769 L13.2286908,5.02505769 C13.3495952,5.02505769 13.4525119,4.93543659 13.4713211,4.81376611 L14.1868916,0.194890333 C14.201019,0.103679314 14.1318603,0.0212546778 14.0412641,0.0212546778 L13.224584,0.0212546778 C13.1519756,0.0212546778 13.0902092,0.0750608108 13.0789565,0.148113306 L12.3532832,4.8515894 Z" id="Fill-9" fill="#FFFFFF" mask="url(#mask-4)"></path>
                        </g>
                    </g>
                    <g id="paypalstacked" transform="translate(0.538462, 0.000000)">
                        <g id="Group-4">
                            <mask id="mask-6" fill="white">
                                <use xlink:href="#path-5"></use>
                            </mask>
                            <g id="Clip-2"></g>
                            <path d="M15.5001092,1.68373668 C15.4036989,2.32105584 14.9203367,2.32105584 14.4527835,2.32105584 L14.1867336,2.32105584 L14.373329,1.13112398 C14.3846328,1.05920184 14.4462306,1.00625 14.5185588,1.00625 L14.6404437,1.00625 C14.9587534,1.00625 15.2593701,1.00625 15.4143474,1.18877715 C15.5070717,1.2980625 15.5351675,1.45996977 15.5001092,1.68373668 Z M15.29664,0.0209497951 L13.5333223,0.0209497951 C13.412748,0.0209497951 13.3101123,0.109285348 13.2913545,0.229210553 L12.5783113,4.78191445 C12.5642225,4.87173463 12.6331923,4.95297695 12.7234592,4.95297695 L13.6281763,4.95297695 C13.7125456,4.95297695 13.7844642,4.89111732 13.7975701,4.80723566 L13.9998106,3.51651383 C14.0185685,3.39658863 14.1212041,3.30825307 14.2417784,3.30825307 L14.7997624,3.30825307 C15.9611914,3.30825307 16.6314765,2.74227869 16.8066861,1.6204749 C16.8855673,1.12988678 16.8098807,0.744377561 16.581756,0.474504611 C16.3309417,0.17782582 15.8864877,0.0209497951 15.29664,0.0209497951 L15.29664,0.0209497951 Z" id="Fill-1" fill="#4899D2" mask="url(#mask-6)"></path>
                            <path d="M2.92368188,1.68373668 C2.82727156,2.32105584 2.34382745,2.32105584 1.87635617,2.32105584 L1.61030628,2.32105584 L1.79690162,1.13112398 C1.80820546,1.05920184 1.86972131,1.00625 1.94204952,1.00625 L2.06401636,1.00625 C2.38224414,1.00625 2.68294277,1.00625 2.83792011,1.18877715 C2.93064439,1.2980625 2.95874018,1.45996977 2.92368188,1.68373668 Z M2.72013078,0.0209497951 L0.956813045,0.0209497951 C0.836320623,0.0209497951 0.733603085,0.109285348 0.714845257,0.229210553 L0.00180206207,4.78191445 C-0.0122048749,4.87173463 0.0566830432,4.95297695 0.147031882,4.95297695 L0.988922515,4.95297695 C1.10949685,4.95297695 1.21213248,4.86464139 1.2308903,4.74471619 L1.42330138,3.51651383 C1.44214112,3.39658863 1.54477675,3.30825307 1.66535109,3.30825307 L2.22325312,3.30825307 C3.38476403,3.30825307 4.05504921,2.74227869 4.23025879,1.6204749 C4.30905805,1.12988678 4.23345335,0.744377561 4.00524677,0.474504611 C3.7545144,0.17782582 3.31006037,0.0209497951 2.72013078,0.0209497951 L2.72013078,0.0209497951 Z" id="Fill-3" fill="#28387B" mask="url(#mask-6)"></path>
                        </g>
                        <path d="M6.69479032,3.42929159 C6.61478621,3.91997321 6.23926493,4.24937137 5.7602042,4.24937137 C5.52011156,4.24937137 5.32789286,4.16922948 5.20427206,4.01752638 C5.08177581,3.86715621 5.03566903,3.65297243 5.07454653,3.41437953 C5.1490885,2.92811321 5.53063419,2.58813499 6.00238531,2.58813499 C6.23749778,2.58813499 6.42843127,2.66894334 6.55446183,2.82206266 C6.68129565,2.97626499 6.7310974,3.1919483 6.69479032,3.42929159 Z M7.8486648,1.75789168 L7.02075082,1.75789168 C6.94974316,1.75789168 6.88933846,1.81137515 6.87833388,1.88410266 L6.84194647,2.1241951 L6.78403185,2.03722199 C6.60474554,1.76722213 6.20512664,1.67708333 5.80607001,1.67708333 C4.89132427,1.67708333 4.10991871,2.39602772 3.95778239,3.40429931 C3.87866186,3.90739377 3.99103711,4.38807848 4.26599098,4.7236414 C4.51869471,5.03187944 4.87927546,5.16025641 5.30885574,5.16025641 C6.04616266,5.16025641 6.4550993,4.66899163 6.4550993,4.66899163 L6.41814962,4.90766784 C6.40433365,4.99838979 6.47196764,5.08053106 6.56056656,5.08053106 L7.306147,5.08053106 C7.424386,5.08053106 7.52503373,4.99139195 7.54342825,4.87026274 L7.99108175,1.93058829 C8.00489772,1.83986634 7.93726372,1.75789168 7.8486648,1.75789168 L7.8486648,1.75789168 Z" id="Fill-5" fill="#28387B"></path>
                        <path d="M19.3818982,3.42929159 C19.3019744,3.91997321 18.9263728,4.24937137 18.4473923,4.24937137 C18.2072193,4.24937137 18.0150005,4.16922948 17.8913797,4.01752638 C17.7688835,3.86715621 17.7227767,3.65297243 17.7616542,3.41437953 C17.8361962,2.92811321 18.2178222,2.58813499 18.6895734,2.58813499 C18.9246859,2.58813499 19.1155391,2.66894334 19.2415697,2.82206266 C19.3684036,2.97626499 19.4182053,3.1919483 19.3818982,3.42929159 Z M20.5358532,1.75789168 L19.7078588,1.75789168 C19.6369315,1.75789168 19.5765267,1.81137515 19.5655222,1.88410266 L19.5290544,2.1241951 L19.4712201,2.03722199 C19.2918534,1.76722213 18.8922345,1.67708333 18.4931778,1.67708333 C17.5784319,1.67708333 16.7970262,2.39602772 16.6448898,3.40429931 C16.5657693,3.90739377 16.6781446,4.38807848 16.9531788,4.7236414 C17.2058023,5.03187944 17.5663831,5.16025641 17.9959634,5.16025641 C18.7332705,5.16025641 19.1422875,4.66899163 19.1422875,4.66899163 L19.1052575,4.90766784 C19.0914415,4.99838979 19.1590755,5.08053106 19.2476745,5.08053106 L19.9933353,5.08053106 C20.111494,5.08053106 20.2121418,4.99139195 20.2306166,4.87026274 L20.6781899,1.93058829 C20.6920059,1.83986634 20.6243719,1.75789168 20.5358532,1.75789168 L20.5358532,1.75789168 Z" id="Fill-6" fill="#4899D2"></path>
                        <g id="Group-10" transform="translate(8.500362, 0.000000)">
                            <mask id="mask-8" fill="white">
                                <use xlink:href="#path-7"></use>
                            </mask>
                            <g id="Clip-8"></g>
                            <path d="M3.97949849,1.68757121 L3.12848541,1.68757121 C3.04708844,1.68757121 2.97094819,1.72874168 2.92528047,1.79727547 L1.75139002,3.55865229 L1.2538911,1.86606029 C1.22276149,1.7602053 1.12707282,1.68757121 1.01857091,1.68757121 L0.182013801,1.68757121 C0.0809862851,1.68757121 0.0099384792,1.7888238 0.0424644111,1.88622713 L0.979556223,4.68833004 L0.0981527492,5.9553264 C0.0289940757,6.05473805 0.0988098387,6.19230769 0.218400134,6.19230769 L1.06859185,6.19230769 C1.14916746,6.19230769 1.22465062,6.15205769 1.27048261,6.08461175 L4.10064937,1.9232973 C4.1683296,1.8237183 4.0984317,1.68757121 3.97949849,1.68757121" id="Fill-7" fill="#28387B" mask="url(#mask-8)"></path>
                            <path d="M12.3532832,4.8515894 C12.339238,4.94271674 12.4083966,5.02505769 12.4989107,5.02505769 L13.2286908,5.02505769 C13.3495952,5.02505769 13.4525119,4.93543659 13.4713211,4.81376611 L14.1868916,0.194890333 C14.201019,0.103679314 14.1318603,0.0212546778 14.0412641,0.0212546778 L13.224584,0.0212546778 C13.1519756,0.0212546778 13.0902092,0.0750608108 13.0789565,0.148113306 L12.3532832,4.8515894 Z" id="Fill-9" fill="#4899D2" mask="url(#mask-8)"></path>
                        </g>
                    </g>
                </g>
                <g id="Group-11" transform="translate(18.000000, 3.000000)">
                    <path d="M4.47379879,2.97878276 L8.03665356,2.97878276 C9.94959571,2.97878276 10.6697081,3.94458464 10.5584263,5.36347877 C10.3744896,7.70598401 8.95449792,9.00197458 7.07098564,9.00197458 L6.12003267,9.00197458 C5.86160154,9.00197458 5.68778132,9.17257206 5.61788535,9.63483622 L5.21414419,12.3222052 C5.18747337,12.4964714 5.09550499,12.5973624 4.95755243,12.6111203 L2.71904224,12.6111203 C2.50843467,12.6111203 2.43394028,12.4506119 2.48912131,12.1029049 L3.85393196,3.48782364 C3.90727362,3.14295991 4.09672846,2.97878276 4.47379879,2.97878276" id="Fill-1" fill="#4899D2" opacity="0.610793341"></path>
                    <path d="M2.20335473,0 L5.58892573,0 C6.54226342,0 7.67369715,0.0318063838 8.42973235,0.727003058 C8.93521085,1.19137626 9.20060888,1.93019312 9.13949749,2.72626147 C8.93171877,5.41708153 7.3856006,6.92470412 5.31130542,6.92470412 L3.64209145,6.92470412 C3.35748698,6.92470412 3.16978771,7.12099495 3.08946988,7.65170718 L2.62327728,10.7414702 C2.59272158,10.941396 2.5097847,11.059534 2.36137132,11.0740741 L0.272234805,11.0740741 C0.0408845427,11.0740741 -0.0411793238,10.8923233 0.0190590463,10.4906541 L1.5206532,0.587054969 C1.58089157,0.189020795 1.79128936,0 2.20335473,0" id="Fill-4" fill="#28387B"></path>
                </g>
            </g>
        </g>
    </g>
</svg>