<?xml version="1.0" encoding="UTF-8"?>
<svg width="46px" height="30px" viewBox="0 0 46 30" version="1.1" xmlns="http://www.w3.org/2000/svg" xmlns:xlink="http://www.w3.org/1999/xlink">
    <!-- Generator: Sketch 62 (91390) - https://sketch.com -->
    <title>VISA</title>
    <desc>Created with Sketch.</desc>
    <g id="Page-1" stroke="none" stroke-width="1" fill="none" fill-rule="evenodd">
        <g id="Planche-marque" transform="translate(-275.000000, -160.000000)">
            <g id="VISA" transform="translate(276.000000, 161.000000)">
                <path d="M6.409713,-2.58960077e-16 L37.590287,2.58960077e-16 C39.8190838,-1.50463262e-16 40.6272994,0.232064028 41.4421143,0.667831759 C42.2569291,1.10359949 42.8964005,1.74307093 43.3321682,2.55788574 C43.767936,3.37270056 44,4.18091615 44,6.409713 L44,21.590287 C44,23.8190838 43.767936,24.6272994 43.3321682,25.4421143 C42.8964005,26.2569291 42.2569291,26.8964005 41.4421143,27.3321682 C40.6272994,27.767936 39.8190838,28 37.590287,28 L6.409713,28 C4.18091615,28 3.37270056,27.767936 2.55788574,27.3321682 C1.74307093,26.8964005 1.10359949,26.2569291 0.667831759,25.4421143 C0.232064028,24.6272994 1.00308841e-16,23.8190838 -1.72640051e-16,21.590287 L1.72640051e-16,6.409713 C-1.00308841e-16,4.18091615 0.232064028,3.37270056 0.667831759,2.55788574 C1.10359949,1.74307093 1.74307093,1.10359949 2.55788574,0.667831759 C3.37270056,0.232064028 4.18091615,1.50463262e-16 6.409713,-2.58960077e-16 Z" id="Rectangle" stroke="#EEEEEE"></path>
                <g id="visa" transform="translate(3.000000, 8.000000)" fill-rule="nonzero">
                    <polygon id="Path" fill="#3C58BF" points="13.245283 10.9326146 15.1323384 0.420485175 18.0808625 0.420485175 16.2527776 10.9326146"></polygon>
                    <polygon id="Path" fill="#293688" points="13.245283 10.9326146 15.6630728 0.420485175 18.0808625 0.420485175 16.2527776 10.9326146"></polygon>
                    <path d="M26.7008086,0.460320613 C26.1236721,0.230160306 25.2002537,0 24.0459807,0 C21.1602981,0 19.0826066,1.43850192 19.0826066,3.50994467 C19.0826066,5.06352674 20.5254479,5.86908781 21.6797209,6.3869485 C22.833994,6.90480919 23.1802759,7.25004965 23.1802759,7.71037027 C23.1802759,8.40085118 22.2568575,8.74609164 21.4488663,8.74609164 C20.2945933,8.74609164 19.6597431,8.57347141 18.6786111,8.17069088 L18.2746155,7.99807065 L17.8706199,10.3572138 C18.5631838,10.6449142 19.8328841,10.9326146 21.1602981,10.9326146 C24.2191216,10.9326146 26.2390994,9.49411264 26.2390994,7.30758973 C26.2390994,6.09924812 25.4888219,5.17860689 23.7574124,4.4305859 C22.7185667,3.91272521 22.0837165,3.62502483 22.0837165,3.10716414 C22.0837165,2.64684352 22.6031394,2.18652291 23.7574124,2.18652291 C24.7385445,2.18652291 25.4311083,2.35914314 25.9505312,2.58930345 L26.2390994,2.7043836 L26.7008086,0.460320613 L26.7008086,0.460320613 Z" id="Path" fill="#3C58BF"></path>
                    <path d="M26.7008086,0.460320613 C26.1236721,0.230160306 25.2002537,0 24.0459807,0 C21.1602981,0 19.6020295,1.43850192 19.6020295,3.50994467 C19.6020295,5.06352674 20.5254479,5.86908781 21.6797209,6.3869485 C22.833994,6.90480919 23.1802759,7.25004965 23.1802759,7.71037027 C23.1802759,8.40085118 22.2568575,8.74609164 21.4488663,8.74609164 C20.2945933,8.74609164 19.6597431,8.57347141 18.6786111,8.17069088 L18.2746155,7.99807065 L17.8706199,10.3572138 C18.5631838,10.6449142 19.8328841,10.9326146 21.1602981,10.9326146 C24.2191216,10.9326146 26.2390994,9.49411264 26.2390994,7.30758973 C26.2390994,6.09924812 25.4888219,5.17860689 23.7574124,4.4305859 C22.7185667,3.91272521 22.0837165,3.62502483 22.0837165,3.10716414 C22.0837165,2.64684352 22.6031394,2.18652291 23.7574124,2.18652291 C24.7385445,2.18652291 25.4311083,2.35914314 25.9505312,2.58930345 L26.2390994,2.7043836 L26.7008086,0.460320613 L26.7008086,0.460320613 Z" id="Path" fill="#293688"></path>
                    <path d="M31.6934925,0.420485175 C31.0003851,0.420485175 30.4805545,0.478885894 30.1917597,1.17969452 L25.8598383,10.9326146 L28.9788217,10.9326146 L29.5564112,9.18059299 L33.2529842,9.18059299 L33.5995379,10.9326146 L36.3719677,10.9326146 L33.9460916,0.420485175 L31.6934925,0.420485175 Z M30.3650366,7.42857143 C30.5383134,6.90296496 31.5202156,4.33333333 31.5202156,4.33333333 C31.5202156,4.33333333 31.7512514,3.69092543 31.9245283,3.2821204 L32.0978052,4.27493261 C32.0978052,4.27493261 32.6753947,6.90296496 32.7909126,7.48697215 L30.3650366,7.48697215 L30.3650366,7.42857143 Z" id="Shape" fill="#3C58BF"></path>
                    <path d="M32.3865999,0.420485175 C31.6934925,0.420485175 31.1736619,0.478885894 30.8848672,1.17969452 L25.8598383,10.9326146 L28.9788217,10.9326146 L29.5564112,9.18059299 L33.2529842,9.18059299 L33.5995379,10.9326146 L36.3719677,10.9326146 L33.9460916,0.420485175 L32.3865999,0.420485175 Z M30.3650366,7.42857143 C30.5960724,6.84456424 31.5202156,4.33333333 31.5202156,4.33333333 C31.5202156,4.33333333 31.7512514,3.69092543 31.9245283,3.2821204 L32.0978052,4.27493261 C32.0978052,4.27493261 32.6753947,6.90296496 32.7909126,7.48697215 L30.3650366,7.48697215 L30.3650366,7.42857143 Z" id="Shape" fill="#293688"></path>
                    <path d="M8.07681941,7.72057502 L7.79065588,6.20215633 C7.27556155,4.45013477 5.61581312,2.52291105 3.78436658,1.58849955 L6.35983827,10.9326146 L9.45040431,10.9326146 L14.0862534,0.420485175 L10.9956873,0.420485175 L8.07681941,7.72057502 Z" id="Path" fill="#3C58BF"></path>
                    <path d="M8.07681941,7.72057502 L7.79065588,6.20215633 C7.27556155,4.45013477 5.61581312,2.52291105 3.78436658,1.58849955 L6.35983827,10.9326146 L9.45040431,10.9326146 L14.0862534,0.420485175 L11.5680144,0.420485175 L8.07681941,7.72057502 Z" id="Path" fill="#293688"></path>
                    <path d="M0,0.420485175 L0.52246852,0.538221024 C4.23780022,1.42123989 6.79209076,3.65822102 7.77897574,6.30727763 L6.7340387,1.30350404 C6.55988253,0.597088949 6.03741401,0.420485175 5.39884137,0.420485175 L0,0.420485175 L0,0.420485175 Z" id="Path" fill="#FFBC00"></path>
                    <path d="M0,0.420485175 L0,0.420485175 C3.7153317,1.28056849 6.79209076,3.5167851 7.77897574,6.09703504 L6.79209076,2.02597403 C6.61793459,1.33790738 6.03741401,0.936535163 5.39884137,0.936535163 L0,0.420485175 Z" id="Path" fill="#F7981D"></path>
                    <path d="M0,0.420485175 L0,0.420485175 C3.7153317,1.28056849 6.79209076,3.5167851 7.77897574,6.09703504 L7.08235105,3.86081843 C6.90819487,3.17275178 6.67598664,2.48468513 5.86325783,2.19799069 L0,0.420485175 Z" id="Path" fill="#ED7C00"></path>
                    <g id="Group" transform="translate(3.784367, 1.471698)" fill="#051244">
                        <path d="M7.15196909,5.84632471 L5.1909453,3.86846361 L4.26811058,6.07901425 L4.0374019,4.62470462 C3.51830737,2.87953306 1.84566944,0.959844355 0,0.0290861926 L2.59547265,9.33666782 L5.71003983,9.33666782 L7.15196909,5.84632471 Z" id="Path"></path>
                        <polygon id="Path" points="12.5159459 9.33666782 10.0358276 6.77708287 9.57441023 9.33666782"></polygon>
                        <path d="M19.1488205,5.72997994 L19.1488205,5.72997994 C19.3795291,5.96266948 19.4948835,6.13718663 19.4372063,6.36987617 C19.4372063,7.06794479 18.5143716,7.41697911 17.7068912,7.41697911 C16.5533478,7.41697911 15.9188989,7.24246195 14.938387,6.83525525 L14.5346469,6.6607381 L14.1309067,9.04580589 C14.8230327,9.33666782 16.0919304,9.62752974 17.4185054,9.62752974 C19.2641748,9.62752974 20.7637812,9.10397827 21.6289388,8.17322011 L19.1488205,5.72997994 Z" id="Path"></path>
                        <path d="M22.4940963,9.33666782 L25.2049233,9.33666782 L25.781695,7.59149626 L29.4730339,7.59149626 L29.8190969,9.33666782 L32.5876011,9.33666782 L31.6070892,5.0900837 L28.146459,1.71608536 L28.3194905,2.64684352 C28.3194905,2.64684352 28.8962622,5.26460086 29.0116165,5.84632471 L26.5891754,5.84632471 C26.8198841,5.26460086 27.7427188,2.76318829 27.7427188,2.76318829 C27.7427188,2.76318829 27.9734275,2.12329206 28.146459,1.71608536" id="Path"></path>
                    </g>
                </g>
            </g>
        </g>
    </g>
</svg>