<svg width="36" height="36" viewBox="0 0 36 36" fill="none" xmlns="http://www.w3.org/2000/svg">
<path d="M26.8194 36.0007V32.9272C26.6091 32.9369 26.4002 32.9415 26.1994 32.9415C23.8104 32.9415 21.8424 32.2866 20.5084 31.0477C18.8798 29.5377 18.1941 27.2128 18.4655 24.1376L19.9729 24.2687C19.7421 26.8599 20.2698 28.772 21.5415 29.9523C22.5887 30.9269 24.1965 31.442 26.1908 31.442C26.3959 31.442 26.6074 31.4366 26.8194 31.4257V28.14L31.1306 32.3686L26.8199 36.0007H26.8194ZM35.1475 29.1334L33.7401 28.5854C34.6987 26.1659 34.7367 24.1839 33.8524 22.6939C33.3858 21.9437 32.7399 21.3213 31.9729 20.883C31.0417 20.345 30.0289 19.9629 28.9745 19.7515V22.9924L24.6625 18.7624L28.9745 15.1337V18.2195C30.3011 18.4558 31.5765 18.9212 32.7435 19.5949C33.7292 20.1616 34.5574 20.966 35.1527 21.9347C36.2844 23.8387 36.2824 26.2605 35.1469 29.1331L35.1475 29.1334ZM14.21 27.2654H0V0H29.2057V12.0822H27.6988V1.34688H21.1273V3.49435C21.4017 3.60684 21.6376 3.79668 21.8062 4.04078C21.9747 4.28487 22.0687 4.5727 22.0767 4.86923C22.0767 5.72096 21.3015 6.41383 20.3487 6.41383C19.3958 6.41383 18.6192 5.72096 18.6192 4.86923C18.6242 4.60464 18.6987 4.34601 18.8353 4.11932C18.9718 3.89264 19.1656 3.70587 19.3972 3.57778V1.34688H15.5146V3.49435C15.7892 3.60675 16.0253 3.79652 16.1942 4.04061C16.363 4.2847 16.4572 4.57257 16.4655 4.86923C16.4655 5.72096 15.6897 6.41383 14.7363 6.41383C13.7828 6.41383 13.0068 5.72096 13.0068 4.86923C13.0119 4.60449 13.0866 4.34575 13.2235 4.11905C13.3603 3.89234 13.5544 3.70566 13.7863 3.57778V1.34688H9.6859V3.49435C9.96057 3.60681 10.1967 3.79659 10.3656 4.04065C10.5345 4.28471 10.6289 4.57255 10.6373 4.86923C10.6373 5.72096 9.86076 6.41383 8.90588 6.41383C7.95101 6.41383 7.17928 5.72096 7.17928 4.86923C7.18421 4.60466 7.25867 4.34604 7.39518 4.11935C7.5317 3.89266 7.72546 3.70588 7.95701 3.57778V1.34688H1.50603V25.7162H14.2103V27.2651L14.21 27.2654ZM10.2385 20.0604C9.77505 20.068 9.313 20.0077 8.86702 19.8815C8.49599 19.7721 8.14976 19.5916 7.84758 19.3501C7.55257 19.11 7.303 18.819 7.1107 18.4909C6.89432 18.1191 6.71946 17.7246 6.58927 17.3146L7.37757 16.9926C7.50745 16.936 7.64761 16.9068 7.78929 16.9069C7.906 16.9048 8.02136 16.9321 8.12472 16.9863C8.22253 17.0373 8.30233 17.1171 8.3533 17.2149C8.43273 17.3706 8.5233 17.5292 8.63902 17.7112C8.74312 17.8716 8.86802 18.0176 9.01046 18.1452C9.34488 18.4339 9.77579 18.586 10.2173 18.5712C10.49 18.5776 10.761 18.5275 11.0134 18.4241C11.2262 18.3349 11.4192 18.204 11.5808 18.0392C11.7282 17.8881 11.8432 17.7087 11.9191 17.5118C11.9928 17.3261 12.0316 17.1284 12.0334 16.9286C12.0352 16.7005 12.0083 16.4731 11.9534 16.2517C11.8998 16.0475 11.7832 15.8654 11.6202 15.7312C11.4066 15.5659 11.1583 15.4511 10.8939 15.3954C10.4783 15.3029 10.053 15.2616 9.62732 15.2726V14.002H9.62875C9.99402 14.0095 10.3588 13.9711 10.7145 13.8877C10.9642 13.8297 11.1993 13.7207 11.4048 13.5674C11.5682 13.4407 11.6924 13.2703 11.7631 13.076C11.8313 12.8728 11.8651 12.6597 11.8631 12.4454C11.8773 12.2417 11.8486 12.0373 11.779 11.8454C11.7093 11.6535 11.6003 11.4783 11.4588 11.3311C11.1527 11.0674 10.7565 10.9324 10.3531 10.9542C9.97373 10.9409 9.60146 11.0591 9.29932 11.2888C9.02299 11.5083 8.81919 11.806 8.71445 12.1431C8.67554 12.2949 8.59204 12.4315 8.47473 12.5354C8.35975 12.6187 8.21969 12.6602 8.07787 12.6528C7.99555 12.6523 7.9134 12.6455 7.83215 12.6322L6.89384 12.4688C6.95413 12.0112 7.0959 11.5681 7.31242 11.1605C7.5082 10.8001 7.77214 10.4811 8.08958 10.2213C8.40724 9.96702 8.76967 9.77437 9.15817 9.65332C9.5786 9.52493 10.016 9.46097 10.4556 9.46361C10.8987 9.45856 11.3394 9.5282 11.7594 9.66961C12.1235 9.79244 12.4609 9.98367 12.7534 10.233C13.0245 10.4702 13.2411 10.7633 13.3881 11.0921C13.5352 11.421 13.6093 11.7777 13.6054 12.1379C13.6095 12.4325 13.5717 12.7261 13.4931 13.01C13.4263 13.2467 13.3162 13.4689 13.1682 13.6654C13.0247 13.8538 12.8481 14.0145 12.6471 14.1397C12.429 14.2747 12.1954 14.3829 11.9514 14.4617C12.4999 14.6076 12.9893 14.9209 13.3514 15.358C13.6718 15.7954 13.8351 16.3282 13.8151 16.87C13.8245 17.3434 13.7252 17.8125 13.5248 18.2415C13.3404 18.6275 13.0743 18.9687 12.7448 19.2415C12.4075 19.515 12.0219 19.7228 11.6079 19.8541C11.1649 19.9933 10.7029 20.0629 10.2385 20.0604ZM18.4652 20.0175C17.9386 20.0219 17.4173 19.9121 16.9372 19.6958C16.458 19.4711 16.0395 19.1351 15.7166 18.7158C15.3427 18.2166 15.0681 17.6502 14.9077 17.0475C14.7001 16.2724 14.6017 15.4722 14.6154 14.67C14.6012 13.8668 14.6996 13.0656 14.9077 12.2897C15.0683 11.6882 15.3429 11.1231 15.7166 10.6251C16.0395 10.2056 16.458 9.86944 16.9372 9.64447C17.4173 9.42817 17.9386 9.31832 18.4652 9.32246C18.994 9.3191 19.5175 9.42889 20.0004 9.64447C20.4833 9.86793 20.9053 10.2043 21.231 10.6251C21.6071 11.1227 21.8843 11.6877 22.0478 12.2897C22.258 13.0652 22.3576 13.8666 22.3436 14.67C22.3571 15.4724 22.2575 16.2728 22.0478 17.0475C21.8848 17.6502 21.6079 18.2161 21.2321 18.7146C20.9063 19.1359 20.4838 19.4724 20.0004 19.6958C19.5174 19.9114 18.9938 20.0211 18.4649 20.0175H18.4652ZM18.4652 10.8059C18.2059 10.8061 17.9502 10.8671 17.7186 10.9839C17.4523 11.1261 17.231 11.3398 17.0798 11.6011C16.8674 11.9695 16.7184 12.3708 16.6389 12.7885C16.5187 13.4081 16.4638 14.0386 16.4749 14.6697C16.4637 15.3011 16.5186 15.9318 16.6389 16.5517C16.7184 16.9693 16.8674 17.3705 17.0798 17.7386C17.2313 17.9999 17.4525 18.2139 17.7186 18.3566C17.9504 18.4728 18.206 18.5335 18.4652 18.5338C18.7279 18.5338 18.9871 18.4731 19.2226 18.3566C19.4918 18.2149 19.716 18.0009 19.8701 17.7386C20.0843 17.3706 20.2356 16.9695 20.3178 16.5517C20.4406 15.9321 20.4969 15.3012 20.4858 14.6697C20.4968 14.0385 20.4405 13.4078 20.3178 12.7885C20.2357 12.3703 20.0843 11.9687 19.8701 11.6002C19.7155 11.3386 19.4914 11.125 19.2226 10.9831C18.9872 10.8662 18.7278 10.8056 18.4649 10.8059H18.4652Z" fill="#00141C"/>
</svg>
