<svg width="36" height="37" viewBox="0 0 36 37" fill="none" xmlns="http://www.w3.org/2000/svg">
<path d="M16.5093 28.2157C16.6542 28.2157 16.7691 28.2568 16.8542 28.3389C16.9393 28.4211 16.9818 28.5297 16.9818 28.6648V29.4754H11.5947V29.0263C11.5947 28.935 11.6137 28.8392 11.6517 28.7387C11.6898 28.6383 11.7504 28.548 11.8337 28.4676L14.2177 26.0578C14.4168 25.8534 14.5951 25.658 14.7526 25.4718C14.9101 25.2856 15.0413 25.1012 15.1463 24.9187C15.2513 24.7361 15.3318 24.5508 15.3879 24.3628C15.4441 24.1747 15.4721 23.9766 15.4721 23.7685C15.4721 23.5787 15.445 23.4116 15.3907 23.2674C15.3364 23.1232 15.2594 23.0018 15.1599 22.9032C15.0603 22.8046 14.9408 22.7307 14.8014 22.6814C14.6621 22.6321 14.5055 22.6074 14.3317 22.6074C14.1724 22.6074 14.0249 22.6303 13.8891 22.6759C13.7534 22.7215 13.633 22.7854 13.528 22.8676C13.423 22.9497 13.3343 23.0456 13.2619 23.1551C13.1895 23.2647 13.1352 23.3851 13.099 23.5166C13.0374 23.6846 12.9578 23.7959 12.86 23.8507C12.7623 23.9054 12.6211 23.9182 12.4365 23.889L11.7305 23.7631C11.7848 23.3833 11.8898 23.0502 12.0455 22.7635C12.2011 22.4769 12.3957 22.2378 12.6292 22.0461C12.8628 21.8544 13.1307 21.7102 13.433 21.6134C13.7353 21.5166 14.0602 21.4683 14.4077 21.4683C14.7698 21.4683 15.101 21.5221 15.4015 21.6298C15.702 21.7375 15.9591 21.89 16.1727 22.0871C16.3863 22.2843 16.5528 22.5216 16.6723 22.7991C16.7917 23.0766 16.8515 23.3851 16.8515 23.7247C16.8515 24.0168 16.8089 24.287 16.7239 24.5353C16.6388 24.7836 16.5247 25.0209 16.3817 25.2473C16.2387 25.4736 16.0713 25.6927 15.8794 25.9045C15.6875 26.1163 15.4866 26.3317 15.2766 26.5508L13.5063 28.3745C13.6764 28.3234 13.8457 28.2842 14.014 28.2568C14.1824 28.2294 14.3426 28.2157 14.4946 28.2157H16.5093ZM25.7513 21.5559V29.4754H24.2851V26.014H20.5977V29.4754H19.1315V21.5559H20.5977V24.9625H24.2851V21.5559H25.7513Z" fill="#00141C"/>
<path fill-rule="evenodd" clip-rule="evenodd" d="M34.6556 13.6081C34.6556 14.4274 34.0726 15.2137 33.2051 15.5646C32.9213 15.6789 32.6304 15.7367 32.3402 15.7367C31.1285 15.7367 30.0249 14.7221 30.0249 13.6081V12.8985H34.6556V13.6081ZM32.8631 34.7028H16.464C16.4318 34.706 16.3994 34.7076 16.3668 34.7076C16.2502 34.7071 16.1335 34.7051 16.0168 34.7028H15.9621V34.7017C15.4926 34.6918 15.0232 34.6755 14.5536 34.6943V34.7028H7.51156V34.6832C7.46205 34.6909 7.4122 34.6962 7.36191 34.6962C7.35924 34.6962 7.35663 34.6959 7.35396 34.6959L7.35044 34.6962C7.27009 34.7007 7.18981 34.6979 7.10946 34.6957C7.07094 34.6956 7.03242 34.6955 6.99502 34.6945C6.96819 34.6947 6.94136 34.6947 6.91453 34.6962C6.91143 34.6964 6.90826 34.6962 6.90509 34.6963C6.65989 34.7025 6.41454 34.7041 6.16891 34.6962C6.14659 34.6955 6.12504 34.693 6.10314 34.6911V34.7028H3.28631V17.0053C3.44954 17.0274 3.61398 17.0395 3.77925 17.0395C4.70606 17.0395 5.64294 16.6741 6.34947 16.0368C6.50574 15.8959 6.64644 15.7452 6.7727 15.5873C7.41311 16.4663 8.45238 17.0395 9.62418 17.0395C10.7748 17.0395 11.7981 16.4874 12.441 15.6353C13.084 16.4874 14.1072 17.0395 15.2579 17.0395C16.4085 17.0395 17.4317 16.4874 18.0747 15.6353C18.7176 16.4874 19.7409 17.0395 20.8915 17.0395C22.0421 17.0395 23.0654 16.4874 23.7084 15.6353C24.3513 16.4874 25.3746 17.0395 26.5252 17.0395C27.697 17.0395 28.7363 16.4663 29.3767 15.5873C29.5029 15.7452 29.6436 15.8959 29.7999 16.0368C30.5064 16.6741 31.4433 17.0395 32.3701 17.0395C32.535 17.0395 32.6995 17.0278 32.8631 17.0056V34.7028ZM1.3444 13.6081V12.8985H5.9751V13.6081C5.9751 14.7221 4.87152 15.7367 3.65975 15.7367C3.35426 15.7367 3.03769 15.6696 2.74301 15.5421C1.90647 15.1823 1.3444 14.405 1.3444 13.6081ZM5.82488 4.38399H8.6639L6.31061 11.4047H1.94191L5.82488 4.38399ZM11.6515 12.8985V13.6081C11.6515 14.7818 10.7133 15.7367 9.56017 15.7367C8.40703 15.7367 7.46888 14.7818 7.46888 13.6081V12.8985H11.6515ZM7.76763 11.4047L10.1125 4.38399H12.9959L11.8234 11.4047H7.76763ZM17.3278 12.8985V13.6081C17.3278 14.7818 16.3896 15.7367 15.2365 15.7367C14.0834 15.7367 13.1452 14.7818 13.1452 13.6081V12.8985H17.3278ZM13.2946 11.4047L14.4497 4.38399H17.3278V11.4047H13.2946ZM18.6722 11.4047V4.38399H21.5503L22.7054 11.4047H18.6722ZM22.8548 12.8985V13.6081C22.8548 14.7818 21.9166 15.7367 20.7635 15.7367C19.6103 15.7367 18.6722 14.7818 18.6722 13.6081V12.8985H22.8548ZM6.12448 2.36739C6.12448 1.99674 6.43983 1.69519 6.82743 1.69519H29.3219C29.7096 1.69519 30.0249 1.99674 30.0249 2.36739V3.03959H6.12448V2.36739ZM24.1766 11.4047L23.0041 4.38399H25.8875L28.2324 11.4047H24.1766ZM24.3485 12.8985H28.5311V13.6081C28.5311 14.7818 27.593 15.7367 26.4398 15.7367C25.2867 15.7367 24.3485 14.7818 24.3485 13.6081V12.8985ZM34.0581 11.4047H29.6894L27.3361 4.38399H30.1751L34.0581 11.4047ZM31.3594 3.53648V2.31079C31.3594 1.14768 30.4131 0.201416 29.25 0.201416H6.75C5.58689 0.201416 4.64062 1.14768 4.64062 2.31079V3.53648C0.0543513 12.0066 0 11.7551 0 12.1538V13.5608C0 14.7795 0.704672 15.913 1.82812 16.5575V35.4983C1.82812 35.8865 2.14298 36.2014 2.53125 36.2014H33.4688C33.857 36.2014 34.1719 35.8865 34.1719 35.4983V16.5575C35.284 15.9135 36 14.7667 36 13.5608V12.1538C36 11.7508 35.9009 11.924 31.3594 3.53648Z" fill="#00141C"/>
</svg>
