<svg width="27" height="36" viewBox="0 0 27 36" fill="none" xmlns="http://www.w3.org/2000/svg">
<path d="M13.4994 20.1519C12.0346 20.1519 10.8428 21.3436 10.8428 22.8086C10.8428 24.0343 11.6774 25.0683 12.8079 25.3734V29.1944C12.8079 29.5762 13.1176 29.8858 13.4994 29.8858C13.8812 29.8858 14.1908 29.5762 14.1908 29.1944V25.3734C15.3214 25.0683 16.156 24.0343 16.156 22.8086C16.1561 21.3436 14.9643 20.1519 13.4994 20.1519ZM13.4994 24.0822C12.7971 24.0822 12.2258 23.5109 12.2258 22.8085C12.2258 22.1062 12.7971 21.5348 13.4994 21.5348C14.2018 21.5348 14.7731 22.1062 14.7731 22.8085C14.7731 23.5109 14.2018 24.0822 13.4994 24.0822Z" fill="#00141C"/>
<path d="M22.8353 12.7213H21.2843V7.98603C21.2843 3.69358 17.7921 0.201416 13.4997 0.201416C9.20722 0.201416 5.71506 3.69358 5.71506 7.98603V12.7212H4.16408C1.89277 12.7212 0.0449219 14.5688 0.0449219 16.8398V31.3476C0.0449219 33.619 1.89284 35.4668 4.16408 35.4668H22.8353C25.1066 35.4668 26.9545 33.6189 26.9545 31.3476V16.8398C26.9544 14.5688 25.1065 12.7213 22.8353 12.7213ZM7.09798 7.98603C7.09798 4.45612 9.96976 1.58434 13.4997 1.58434C17.0296 1.58434 19.9014 4.45612 19.9014 7.98603V12.7212H17.9514V7.98603C17.9514 5.53095 15.9543 3.53357 13.4997 3.53357C11.045 3.53357 9.04798 5.53089 9.04798 7.98603V12.7212H7.09798V7.98603ZM16.5684 7.98603V12.7212H10.4309V7.98603C10.4309 6.2935 11.8076 4.91657 13.4997 4.91657C15.1918 4.91657 16.5684 6.2935 16.5684 7.98603ZM25.5715 31.3476C25.5715 32.8563 24.344 34.0837 22.8353 34.0837H4.16408C2.65531 34.0837 1.42791 32.8563 1.42791 31.3476V16.8398C1.42791 15.3315 2.65538 14.1042 4.16408 14.1042H6.40652H9.73944H17.26H20.5929H22.8353C24.3441 14.1042 25.5715 15.3314 25.5715 16.8398V31.3476Z" fill="#00141C"/>
</svg>
