<svg width="52" height="28" viewBox="0 0 52 28" fill="none" xmlns="http://www.w3.org/2000/svg">
<path d="M50.7948 14.0379L44.2863 6.68818C44.074 6.44862 43.7676 6.31106 43.4455 6.31106H38.0259V1.77209C38.0259 1.16146 37.5254 0.666504 36.9082 0.666504H13.8239C13.2067 0.666504 12.7062 1.16146 12.7062 1.77209V3.2639H1.95655C1.33935 3.2639 0.838867 3.75886 0.838867 4.36948C0.838867 4.98011 1.33935 5.47507 1.95655 5.47507H12.7062V19.8068H6.2355C5.61831 19.8068 5.11782 20.3017 5.11782 20.9124C5.11782 21.523 5.61831 22.0179 6.2355 22.0179H12.7062V23.1415C12.7062 23.7521 13.2067 24.2471 13.8239 24.2471H16.1568C16.6483 26.0183 18.2893 27.3237 20.2338 27.3237C22.1783 27.3237 23.8193 26.0183 24.3109 24.2471H39.2245C39.716 26.0183 41.357 27.3236 43.3015 27.3236C45.246 27.3236 46.887 26.0182 47.3786 24.247H49.9541C50.5713 24.247 51.0718 23.752 51.0718 23.1414V14.7662C51.0717 14.4984 50.9732 14.2394 50.7948 14.0379ZM20.2338 25.1126C19.135 25.1126 18.2413 24.2283 18.2413 23.1415C18.2413 22.0547 19.135 21.1705 20.2338 21.1705C21.3325 21.1705 22.2264 22.0547 22.2264 23.1415C22.2264 24.2283 21.3325 25.1126 20.2338 25.1126ZM24.3106 22.0359C23.8191 20.2648 22.1781 18.9593 20.2336 18.9593C18.289 18.9593 16.6482 20.2648 16.1566 22.0359H14.9414V2.87756H35.79V22.0359H24.3106ZM43.3013 25.1126C42.2026 25.1126 41.3088 24.2283 41.3088 23.1415C41.3088 22.0547 42.2026 21.1705 43.3013 21.1705C44.4 21.1705 45.2939 22.0547 45.2939 23.1415C45.2939 24.2283 44.4001 25.1126 43.3013 25.1126ZM48.8363 22.0359H47.3784C46.8869 20.2648 45.2458 18.9593 43.3013 18.9593C41.3568 18.9593 39.7159 20.2648 39.2243 22.0359H38.0255V8.52222H42.9384L48.8362 15.1821L48.8363 22.0359Z" fill="#00141C"/>
<path fill-rule="evenodd" clip-rule="evenodd" d="M12.2868 1.77225C12.2868 0.929733 12.9768 0.25 13.8238 0.25H36.9081C37.7551 0.25 38.4451 0.929733 38.4451 1.77225V5.89455H43.4454C43.8878 5.89455 44.3089 6.08346 44.6009 6.41302L51.1095 13.7628C51.3551 14.0402 51.4909 14.3969 51.4911 14.7662V23.1416C51.4911 23.9841 50.8011 24.6638 49.954 24.6638H47.6861C47.0497 26.454 45.3254 27.7405 43.3014 27.7405C41.2775 27.7405 39.5532 26.4541 38.9169 24.6639H24.6184C23.9819 26.4541 22.2576 27.7406 20.2337 27.7406C18.2098 27.7406 16.4855 26.4541 15.8491 24.6639H13.8238C12.9768 24.6639 12.2868 23.9842 12.2868 23.1417V22.4348H6.23542C5.38842 22.4348 4.69839 21.755 4.69839 20.9125C4.69839 20.07 5.38841 19.3903 6.23542 19.3903H12.2868V5.8919H1.95647C1.10946 5.8919 0.419434 5.21216 0.419434 4.36965C0.419434 3.52713 1.10946 2.8474 1.95647 2.8474H12.2868V1.77225ZM13.8238 1.08333C13.4364 1.08333 13.1255 1.39352 13.1255 1.77225V3.68073H1.95647C1.56909 3.68073 1.25814 3.99092 1.25814 4.36965C1.25814 4.74838 1.56909 5.05856 1.95647 5.05856H13.1255V20.2236H6.23542C5.84804 20.2236 5.5371 20.5338 5.5371 20.9125C5.5371 21.2913 5.84804 21.6014 6.23542 21.6014H13.1255V23.1417C13.1255 23.5204 13.4364 23.8306 13.8238 23.8306H16.4761L16.561 24.1365C17.0035 25.7311 18.4821 26.9072 20.2337 26.9072C21.9852 26.9072 23.4639 25.7311 23.9065 24.1365L23.9914 23.8306H39.5438L39.6287 24.1365C40.0712 25.7311 41.5499 26.9071 43.3014 26.9071C45.053 26.9071 46.5317 25.731 46.9743 24.1364L47.0592 23.8305H49.954C50.3414 23.8305 50.6524 23.5203 50.6524 23.1416V14.7666C50.6524 14.7665 50.6524 14.7666 50.6524 14.7666C50.6523 14.6003 50.5911 14.4389 50.4798 14.3132L43.9714 6.96368C43.8389 6.8141 43.6472 6.72789 43.4454 6.72789H37.6064V1.77225C37.6064 1.39352 37.2955 1.08333 36.9081 1.08333H13.8238ZM14.5219 2.46106H36.2093V22.4528H23.9912L23.9063 22.1468C23.4638 20.5523 21.985 19.3761 20.2335 19.3761C18.4819 19.3761 17.0034 20.5522 16.5608 22.1469L16.4758 22.4528H14.5219V2.46106ZM15.3606 3.29439V21.6194H15.8489C16.4853 19.8292 18.2095 18.5428 20.2335 18.5428C22.2574 18.5428 23.9818 19.8292 24.6182 21.6194H35.3706V3.29439H15.3606ZM37.6061 8.10572H43.128L49.2555 15.025L49.2556 22.4528H47.0589L46.974 22.1468C46.5315 20.5523 45.0528 19.3761 43.3012 19.3761C41.5497 19.3761 40.0711 20.5522 39.6285 22.1469L39.5436 22.4528H37.6061V8.10572ZM38.4448 8.93905V21.6194H38.9167C39.5531 19.8292 41.2772 18.5428 43.3012 18.5428C45.3251 18.5428 47.0495 19.8292 47.6859 21.6194H48.4169L48.4168 15.3394L42.7488 8.93905H38.4448ZM20.2337 21.5873C19.3648 21.5873 18.6605 22.2867 18.6605 23.1417C18.6605 23.9967 19.3648 24.6961 20.2337 24.6961C21.1026 24.6961 21.807 23.9966 21.807 23.1417C21.807 22.2867 21.1026 21.5873 20.2337 21.5873ZM17.8218 23.1417C17.8218 21.823 18.9051 20.754 20.2337 20.754C21.5623 20.754 22.6457 21.823 22.6457 23.1417C22.6457 24.4604 21.5623 25.5294 20.2337 25.5294C18.9051 25.5294 17.8218 24.4603 17.8218 23.1417ZM43.3012 21.5873C42.4324 21.5873 41.728 22.2867 41.728 23.1417C41.728 23.9967 42.4324 24.6961 43.3012 24.6961C44.1702 24.6961 44.8745 23.9967 44.8745 23.1417C44.8745 22.2867 44.1701 21.5873 43.3012 21.5873ZM40.8893 23.1417C40.8893 21.823 41.9726 20.754 43.3012 20.754C44.6298 20.754 45.7132 21.823 45.7132 23.1417C45.7132 24.4604 44.6299 25.5294 43.3012 25.5294C41.9726 25.5294 40.8893 24.4603 40.8893 23.1417Z" fill="white"/>
<path fill-rule="evenodd" clip-rule="evenodd" d="M2.55293 20.2222H1.95655C1.33935 20.2222 0.838867 20.7171 0.838867 21.3277C0.838867 21.9384 1.33935 22.4333 1.95655 22.4333H2.55293C3.17012 22.4333 3.67061 21.9384 3.67061 21.3277C3.67061 20.7171 3.17023 20.2222 2.55293 20.2222Z" fill="#00141C"/>
<path fill-rule="evenodd" clip-rule="evenodd" d="M0.419434 21.3279C0.419434 20.4854 1.10946 19.8057 1.95647 19.8057H2.55285C3.39999 19.8057 4.08988 20.4854 4.08988 21.3279C4.08988 22.1704 3.39986 22.8502 2.55285 22.8502H1.95647C1.10946 22.8502 0.419434 22.1704 0.419434 21.3279ZM1.95647 20.639C1.56909 20.639 1.25814 20.9492 1.25814 21.3279C1.25814 21.7066 1.56909 22.0168 1.95647 22.0168H2.55285C2.94023 22.0168 3.25117 21.7066 3.25117 21.3279C3.25117 20.9492 2.94031 20.639 2.55285 20.639H1.95647Z" fill="white"/>
<path fill-rule="evenodd" clip-rule="evenodd" d="M17.5288 11.3335H5.55079C4.93359 11.3335 4.43311 11.8285 4.43311 12.4391C4.43311 13.0497 4.93359 13.5447 5.55079 13.5447H17.5288C18.146 13.5447 18.6465 13.0497 18.6465 12.4391C18.6465 11.8285 18.146 11.3335 17.5288 11.3335Z" fill="#00141C"/>
<path fill-rule="evenodd" clip-rule="evenodd" d="M4.01367 12.4388C4.01367 11.5962 4.7037 10.9165 5.55071 10.9165H17.5287C18.3757 10.9165 19.0658 11.5962 19.0658 12.4388C19.0658 13.2813 18.3757 13.961 17.5287 13.961H5.55071C4.7037 13.961 4.01367 13.2813 4.01367 12.4388ZM5.55071 11.7498C5.16333 11.7498 4.85238 12.06 4.85238 12.4388C4.85238 12.8175 5.16333 13.1277 5.55071 13.1277H17.5287C17.9161 13.1277 18.2271 12.8175 18.2271 12.4388C18.2271 12.06 17.9161 11.7498 17.5287 11.7498H5.55071Z" fill="white"/>
</svg>
